<svg width="20" height="20" viewBox="0 0 20 20" fill="none" xmlns="http://www.w3.org/2000/svg">
<mask id="path-1-inside-1_389_18879" fill="white">
<path d="M19.4141 11.2663H18.7766L16.7349 6.31856C17.0208 6.27958 17.2413 6.03466 17.2413 5.73754C17.2413 5.41333 16.979 5.15049 16.6554 5.15049H11.6177C11.3769 4.48044 10.7363 4 9.98559 4C9.23488 4 8.59422 4.48048 8.3534 5.15049H3.34465C3.02105 5.15049 2.75871 5.41333 2.75871 5.73754C2.75871 6.03466 2.97926 6.27958 3.26512 6.31856L1.22344 11.2663H0.585938C0.262344 11.2663 0 11.5291 0 11.8533C0 14.1398 1.85668 16 4.13883 16C6.42098 16 8.27766 14.1398 8.27766 11.8533C8.27766 11.5291 8.01531 11.2663 7.69172 11.2663H7.05418L5.01504 6.32458H8.3534C8.59422 6.99464 9.23484 7.47508 9.98559 7.47508C10.7363 7.47508 11.3769 6.99464 11.6177 6.32458H14.985L12.9459 11.2663H12.3083C11.9847 11.2663 11.7224 11.5291 11.7224 11.8533C11.7224 14.1398 13.5791 16 15.8612 16C18.1434 16 20 14.1398 20 11.8533C20 11.5291 19.7377 11.2663 19.4141 11.2663ZM4.13883 14.8259C2.70332 14.8259 1.5027 13.7993 1.22996 12.4404H7.0477C6.77496 13.7993 5.57434 14.8259 4.13883 14.8259ZM5.78613 11.2663H2.49152L4.13883 7.27423L5.78613 11.2663ZM9.98555 6.30098C9.67543 6.30098 9.42316 6.04824 9.42316 5.73754C9.42316 5.42683 9.67543 5.17409 9.98555 5.17409C10.2956 5.17409 10.5479 5.42683 10.5479 5.73754C10.5479 6.04824 10.2957 6.30098 9.98555 6.30098ZM15.8612 7.27423L17.5085 11.2663H14.2139L15.8612 7.27423ZM15.8612 14.8259C14.4257 14.8259 13.225 13.7993 12.9523 12.4404H18.77C18.4973 13.7993 17.2966 14.8259 15.8612 14.8259Z"/>
</mask>
<path d="M19.4141 11.2663H18.7766L16.7349 6.31856C17.0208 6.27958 17.2413 6.03466 17.2413 5.73754C17.2413 5.41333 16.979 5.15049 16.6554 5.15049H11.6177C11.3769 4.48044 10.7363 4 9.98559 4C9.23488 4 8.59422 4.48048 8.3534 5.15049H3.34465C3.02105 5.15049 2.75871 5.41333 2.75871 5.73754C2.75871 6.03466 2.97926 6.27958 3.26512 6.31856L1.22344 11.2663H0.585938C0.262344 11.2663 0 11.5291 0 11.8533C0 14.1398 1.85668 16 4.13883 16C6.42098 16 8.27766 14.1398 8.27766 11.8533C8.27766 11.5291 8.01531 11.2663 7.69172 11.2663H7.05418L5.01504 6.32458H8.3534C8.59422 6.99464 9.23484 7.47508 9.98559 7.47508C10.7363 7.47508 11.3769 6.99464 11.6177 6.32458H14.985L12.9459 11.2663H12.3083C11.9847 11.2663 11.7224 11.5291 11.7224 11.8533C11.7224 14.1398 13.5791 16 15.8612 16C18.1434 16 20 14.1398 20 11.8533C20 11.5291 19.7377 11.2663 19.4141 11.2663ZM4.13883 14.8259C2.70332 14.8259 1.5027 13.7993 1.22996 12.4404H7.0477C6.77496 13.7993 5.57434 14.8259 4.13883 14.8259ZM5.78613 11.2663H2.49152L4.13883 7.27423L5.78613 11.2663ZM9.98555 6.30098C9.67543 6.30098 9.42316 6.04824 9.42316 5.73754C9.42316 5.42683 9.67543 5.17409 9.98555 5.17409C10.2956 5.17409 10.5479 5.42683 10.5479 5.73754C10.5479 6.04824 10.2957 6.30098 9.98555 6.30098ZM15.8612 7.27423L17.5085 11.2663H14.2139L15.8612 7.27423ZM15.8612 14.8259C14.4257 14.8259 13.225 13.7993 12.9523 12.4404H18.77C18.4973 13.7993 17.2966 14.8259 15.8612 14.8259Z" fill="#282739" stroke="#282739" stroke-width="8" mask="url(#path-1-inside-1_389_18879)"/>
</svg>
