<svg width="90" height="14" viewBox="0 0 90 14" fill="none" xmlns="http://www.w3.org/2000/svg">
<path d="M7 0L8.84741 4.45726L13.6574 4.83688L9.98917 7.97124L11.1145 12.6631L7 10.143L2.8855 12.6631L4.01083 7.97124L0.342604 4.83688L5.15259 4.45726L7 0Z" fill="#FFD12E"/>
<path d="M26 0L27.8474 4.45726L32.6574 4.83688L28.9892 7.97124L30.1145 12.6631L26 10.143L21.8855 12.6631L23.0108 7.97124L19.3426 4.83688L24.1526 4.45726L26 0Z" fill="#FFD12E"/>
<path d="M45 0L46.8474 4.45726L51.6574 4.83688L47.9892 7.97124L49.1145 12.6631L45 10.143L40.8855 12.6631L42.0108 7.97124L38.3426 4.83688L43.1526 4.45726L45 0Z" fill="#FFD12E"/>
<path d="M64 0L65.8474 4.45726L70.6574 4.83688L66.9892 7.97124L68.1145 12.6631L64 10.143L59.8855 12.6631L61.0108 7.97124L57.3426 4.83688L62.1526 4.45726L64 0Z" fill="#FFD12E"/>
<path d="M83 0L84.8474 4.45726L89.6574 4.83688L85.9892 7.97124L87.1145 12.6631L83 10.143L78.8855 12.6631L80.0108 7.97124L76.3426 4.83688L81.1526 4.45726L83 0Z" fill="#FFD12E"/>
</svg>
