<svg width="20" height="20" viewBox="0 0 20 20" fill="none" xmlns="http://www.w3.org/2000/svg">
<g clip-path="url(#clip0_14201_55)">
<path d="M19.7031 7.22904C19.439 6.89772 19.0428 6.70764 18.616 6.70764H14.7643L12.6756 1.9251C12.5461 1.62858 12.2007 1.49307 11.9042 1.62264C11.6076 1.75213 11.4722 2.09756 11.6017 2.39412L13.4855 6.70768H6.51449L8.39828 2.39412C8.52778 2.09756 8.39239 1.75217 8.09582 1.62264C7.7993 1.49307 7.45387 1.6285 7.32438 1.9251L5.23574 6.70768H1.38403C0.957229 6.70768 0.561018 6.89772 0.296917 7.22908C0.0376587 7.5544 -0.0580054 7.9726 0.0344556 8.37658L2.09137 17.361C2.235 17.9883 2.78996 18.4264 3.44094 18.4264H16.5591C17.21 18.4264 17.765 17.9883 17.9086 17.361L19.9655 8.37654C20.058 7.97256 19.9623 7.55436 19.7031 7.22904ZM16.5591 17.2545H3.44094C3.34145 17.2545 3.2543 17.1893 3.23371 17.0994L1.1768 8.11506C1.16067 8.04455 1.18774 7.99151 1.21336 7.95944C1.23711 7.92959 1.2909 7.87955 1.38403 7.87955H4.72399L4.57051 8.231C4.44102 8.52756 4.57641 8.87295 4.87297 9.00248C4.9493 9.03584 5.02883 9.05162 5.10715 9.05162C5.33301 9.05162 5.54824 8.92026 5.64442 8.70006L6.00274 7.87963H13.9973L14.3557 8.70006C14.4518 8.9203 14.6671 9.05162 14.8929 9.05162C14.9712 9.05162 15.0508 9.03584 15.1271 9.00248C15.4237 8.87299 15.5591 8.52756 15.4296 8.231L15.2761 7.87955H18.6161C18.7092 7.87955 18.763 7.92959 18.7867 7.95944C18.8123 7.99154 18.8394 8.04459 18.8233 8.11502L16.7664 17.0994C16.7457 17.1893 16.6586 17.2545 16.5591 17.2545Z" fill="#6F73EE"/>
<path d="M19.7031 7.22904C19.439 6.89772 19.0428 6.70764 18.616 6.70764H14.7643L12.6756 1.9251C12.5461 1.62858 12.2007 1.49307 11.9042 1.62264C11.6076 1.75213 11.4722 2.09756 11.6017 2.39412L13.4855 6.70768H6.51449L8.39828 2.39412C8.52778 2.09756 8.39239 1.75217 8.09582 1.62264C7.7993 1.49307 7.45387 1.6285 7.32438 1.9251L5.23574 6.70768H1.38403C0.957229 6.70768 0.561018 6.89772 0.296917 7.22908C0.0376587 7.5544 -0.0580054 7.9726 0.0344556 8.37658L2.09137 17.361C2.235 17.9883 2.78996 18.4264 3.44094 18.4264H16.5591C17.21 18.4264 17.765 17.9883 17.9086 17.361L19.9655 8.37654C20.058 7.97256 19.9623 7.55436 19.7031 7.22904ZM16.5591 17.2545H3.44094C3.34145 17.2545 3.2543 17.1893 3.23371 17.0994L1.1768 8.11506C1.16067 8.04455 1.18774 7.99151 1.21336 7.95944C1.23711 7.92959 1.2909 7.87955 1.38403 7.87955H4.72399L4.57051 8.231C4.44102 8.52756 4.57641 8.87295 4.87297 9.00248C4.9493 9.03584 5.02883 9.05162 5.10715 9.05162C5.33301 9.05162 5.54824 8.92026 5.64442 8.70006L6.00274 7.87963H13.9973L14.3557 8.70006C14.4518 8.9203 14.6671 9.05162 14.8929 9.05162C14.9712 9.05162 15.0508 9.03584 15.1271 9.00248C15.4237 8.87299 15.5591 8.52756 15.4296 8.231L15.2761 7.87955H18.6161C18.7092 7.87955 18.763 7.92959 18.7867 7.95944C18.8123 7.99154 18.8394 8.04459 18.8233 8.11502L16.7664 17.0994C16.7457 17.1893 16.6586 17.2545 16.5591 17.2545Z" stroke="#6F73EE"/>
<path d="M6.48438 10.4189C6.16078 10.4189 5.89844 10.6813 5.89844 11.0049V15.3018C5.89844 15.6254 6.16078 15.8877 6.48438 15.8877C6.80797 15.8877 7.07031 15.6254 7.07031 15.3018V11.0049C7.07031 10.6813 6.80801 10.4189 6.48438 10.4189Z" fill="#6F73EE"/>
<path d="M6.48438 10.4189C6.16078 10.4189 5.89844 10.6813 5.89844 11.0049V15.3018C5.89844 15.6254 6.16078 15.8877 6.48438 15.8877C6.80797 15.8877 7.07031 15.6254 7.07031 15.3018V11.0049C7.07031 10.6813 6.80801 10.4189 6.48438 10.4189Z" stroke="#6F73EE"/>
<path d="M10 10.4189C9.67641 10.4189 9.41406 10.6813 9.41406 11.0049V15.3018C9.41406 15.6254 9.67641 15.8877 10 15.8877C10.3236 15.8877 10.5859 15.6254 10.5859 15.3018V11.0049C10.5859 10.6813 10.3236 10.4189 10 10.4189Z" fill="#6F73EE"/>
<path d="M10 10.4189C9.67641 10.4189 9.41406 10.6813 9.41406 11.0049V15.3018C9.41406 15.6254 9.67641 15.8877 10 15.8877C10.3236 15.8877 10.5859 15.6254 10.5859 15.3018V11.0049C10.5859 10.6813 10.3236 10.4189 10 10.4189Z" stroke="#6F73EE"/>
<path d="M13.5156 10.4189C13.192 10.4189 12.9297 10.6813 12.9297 11.0049V15.3018C12.9297 15.6254 13.192 15.8877 13.5156 15.8877C13.8392 15.8877 14.1016 15.6254 14.1016 15.3018V11.0049C14.1015 10.6813 13.8392 10.4189 13.5156 10.4189Z" fill="#6F73EE"/>
<path d="M13.5156 10.4189C13.192 10.4189 12.9297 10.6813 12.9297 11.0049V15.3018C12.9297 15.6254 13.192 15.8877 13.5156 15.8877C13.8392 15.8877 14.1016 15.6254 14.1016 15.3018V11.0049C14.1015 10.6813 13.8392 10.4189 13.5156 10.4189Z" stroke="#6F73EE"/>
</g>
<defs>
<clipPath id="clip0_14201_55">
<rect width="20" height="20" fill="white"/>
</clipPath>
</defs>
</svg>
