<?xml version="1.0" encoding="utf-8"?><svg viewBox="0 0 800 800" xmlns="http://www.w3.org/2000/svg" xmlns:xlink="http://www.w3.org/1999/xlink"><style>:root>svg{display:none}:root>svg:target{display:block}</style><svg viewBox="0 0 8 8" id="icon-plus" xmlns="http://www.w3.org/2000/svg"><path d="M0 4.653h8V3.347H0v1.306ZM3.299 0v8h1.402V0H3.299Z"/></svg><svg viewBox="0 0 16 14" id="icon-telegram" xmlns="http://www.w3.org/2000/svg"><path d="m6.278 9.121-.265 3.723c.38 0 .543-.163.74-.358l1.775-1.697 3.679 2.694c.675.376 1.15.178 1.332-.62l2.415-11.315C16.168.55 15.594.16 14.936.403L.743 5.838C-.226 6.214-.211 6.754.578 7l3.629 1.129 8.428-5.274c.397-.263.758-.118.461.145L6.278 9.121Z"/></svg><svg viewBox="0 0 12 12" id="icon-viber" xmlns="http://www.w3.org/2000/svg"><path d="M11.496 4.235c0-1.127-.442-2.19-1.244-2.991A4.205 4.205 0 0 0 7.26 0H4.75C3.625 0 2.562.442 1.76 1.244A4.205 4.205 0 0 0 .515 4.235v1.973c0 .873.266 1.712.77 2.428a4.25 4.25 0 0 0 1.738 1.437v1.133c0 .586.328.794.61.794.2 0 .4-.1.596-.294l1.262-1.263h1.769c1.127 0 2.189-.441 2.991-1.244a4.205 4.205 0 0 0 1.244-2.991V4.235ZM8.272 7.58l-.932.932a1.284 1.284 0 0 1-.914.377c-.346 0-.671-.134-.915-.377L2.583 5.58a1.295 1.295 0 0 1 0-1.828l.932-.932a.351.351 0 0 1 .497 0l1.331 1.331a.351.351 0 0 1 0 .498l-.284.284 1.1 1.1.284-.284a.352.352 0 0 1 .498 0l1.331 1.331a.351.351 0 0 1 0 .498ZM5.739 3.413c0-.194.158-.352.352-.352 1.218 0 2.21.991 2.21 2.21a.352.352 0 1 1-.704 0c0-.83-.676-1.506-1.506-1.506a.352.352 0 0 1-.352-.352Zm3.716 2.21a.352.352 0 0 1-.352-.352c0-.805-.313-1.561-.882-2.13a2.993 2.993 0 0 0-2.13-.883.352.352 0 0 1 0-.703c.992 0 1.925.387 2.627 1.088a3.69 3.69 0 0 1 1.088 2.628.352.352 0 0 1-.351.351Z"/></svg><svg viewBox="0 0 32 32" xml:space="preserve" id="icon-whatsapp" xmlns="http://www.w3.org/2000/svg"><path d="M17 0C8.7 0 2 6.7 2 15c0 3.4 1.1 6.6 3.2 9.2l-2.1 6.4c-.1.4 0 .8.3 1.1.1.2.4.3.6.3.1 0 .3 0 .4-.1l6.9-3.1c1.8.8 3.7 1.2 5.7 1.2 8.3 0 15-6.7 15-15S25.3 0 17 0zm8.7 20.5c-.4 1.2-1.9 2.2-3.2 2.4-.3.1-.6.1-1 .1-.8 0-2-.2-4.1-1.1-2.4-1-4.8-3.1-6.7-5.8V16c-.6-.9-1.7-2.6-1.7-4.4 0-2.2 1.1-3.3 1.5-3.8.5-.5 1.2-.8 2-.8h.5c.7 0 1.2.2 1.7 1.2l.4.8c.3.8.7 1.7.8 1.8.3.6.3 1.1 0 1.6-.1.3-.3.5-.5.7-.1.2-.2.3-.3.3l-.2.2c.3.5.9 1.4 1.7 2.1 1.2 1.1 2.1 1.4 2.6 1.6.2-.2.4-.6.7-.9l.1-.2c.5-.7 1.3-.9 2.1-.6.4.2 2.6 1.2 2.6 1.2l.2.1c.3.2.7.3.9.7.4.9.1 2.2-.1 2.9z"/></svg></svg>