<?xml version="1.0" encoding="UTF-8" standalone="no"?><svg viewBox="0 0 800 800" xmlns="http://www.w3.org/2000/svg" xmlns:xlink="http://www.w3.org/1999/xlink"><style>:root>svg{display:none}:root>svg:target{display:block}</style><svg viewBox="0 -4.5 20 20" id="arrow-down" xmlns="http://www.w3.org/2000/svg"><path d="M.292.366c-.39.405-.39 1.06 0 1.464l8.264 8.563c.78.81 2.047.81 2.827 0l8.325-8.625c.385-.4.39-1.048.01-1.454a.976.976 0 0 0-1.425-.011l-7.617 7.893a.975.975 0 0 1-1.414 0L1.705.366a.974.974 0 0 0-1.413 0" fill-rule="evenodd"/></svg><svg viewBox="0 0 6 10" id="arrow-right" xmlns="http://www.w3.org/2000/svg"><path d="M5.358 4.408 1.825.875A.833.833 0 1 0 .642 2.05L3.592 5 .642 7.95a.833.833 0 0 0 .271 1.355c.102.041.21.062.32.062a.833.833 0 0 0 .592-.242l3.533-3.533a.833.833 0 0 0 0-1.184Z"/></svg><svg viewBox="0 0 6 6" id="arrow-right-2" xmlns="http://www.w3.org/2000/svg"><path d="M5.96 2.81a.5.5 0 0 0-.105-.165l-2.5-2.5a.502.502 0 1 0-.71.71L4.295 2.5H.5a.5.5 0 0 0 0 1h3.795l-1.65 1.645a.5.5 0 0 0 .163.82.5.5 0 0 0 .547-.11l2.5-2.5a.5.5 0 0 0 .105-.165.5.5 0 0 0 0-.38Z"/></svg><svg viewBox="0 0 24 24" id="heart" xmlns="http://www.w3.org/2000/svg"><path d="M16.544 3.75c-3.043 0-4.543 3-4.543 3s-1.5-3-4.544-3C4.984 3.75 3.026 5.82 3 8.288c-.051 5.125 4.066 8.77 8.579 11.832a.75.75 0 0 0 .843 0c4.512-3.063 8.63-6.707 8.578-11.832-.025-2.469-1.983-4.538-4.456-4.538Z"/></svg><svg viewBox="0 -4.5 20 20" id="icon-arrow-down" xmlns="http://www.w3.org/2000/svg"><path d="M20 1.39 18.594 0 9.987 8.261l-.918-.881.005.005L1.427.045 0 1.414 9.987 11 20 1.39" fill-rule="evenodd"/></svg><svg viewBox="0 0 6 6" id="icon-cancel" xmlns="http://www.w3.org/2000/svg"><path d="M3.705 3 5.855.855a.502.502 0 1 0-.71-.71L3 2.295.855.145a.502.502 0 1 0-.71.71L2.295 3 .145 5.145a.5.5 0 0 0 .163.82.5.5 0 0 0 .547-.11L3 3.705l2.145 2.15a.5.5 0 0 0 .82-.163.5.5 0 0 0-.11-.547L3.705 3Z"/></svg><svg viewBox="0 0 12 12" id="icon-close" xmlns="http://www.w3.org/2000/svg"><path d="m7.41 6 4.3-4.29A1.004 1.004 0 1 0 10.29.29L6 4.59 1.71.29A1.004 1.004 0 0 0 .29 1.71L4.59 6l-4.3 4.29a1 1 0 0 0 0 1.42.998.998 0 0 0 1.42 0L6 7.41l4.29 4.3a.998.998 0 0 0 1.42 0 .997.997 0 0 0 .219-1.095.998.998 0 0 0-.22-.325L7.41 6Z"/></svg><svg viewBox="0 0 20 16" id="icon-envelope" xmlns="http://www.w3.org/2000/svg"><path d="M17 0H3a3 3 0 0 0-3 3v10a3 3 0 0 0 3 3h14a3 3 0 0 0 3-3V3a3 3 0 0 0-3-3Zm-.41 2-5.88 5.88a1 1 0 0 1-1.42 0L3.41 2h13.18ZM18 13a1 1 0 0 1-1 1H3a1 1 0 0 1-1-1V3.41l5.88 5.88a3 3 0 0 0 4.24 0L18 3.41V13Z"/></svg><svg viewBox="0 0 16 16" id="icon-plus" xmlns="http://www.w3.org/2000/svg"><path d="M15 7H9V1a1 1 0 0 0-2 0v6H1a1 1 0 0 0 0 2h6v6a1 1 0 1 0 2 0V9h6a1 1 0 1 0 0-2Z"/></svg><svg viewBox="0 0 16 15" id="icon-star" xmlns="http://www.w3.org/2000/svg"><path d="M7.049.927c.3-.921 1.603-.921 1.902 0l1.07 3.292a1 1 0 0 0 .95.69h3.462c.969 0 1.371 1.24.588 1.81l-2.8 2.034a1 1 0 0 0-.364 1.118l1.07 3.292c.3.921-.755 1.688-1.539 1.118l-2.8-2.034a1 1 0 0 0-1.176 0l-2.8 2.034c-.784.57-1.838-.197-1.539-1.118l1.07-3.292a1 1 0 0 0-.363-1.118L.98 6.72c-.784-.57-.382-1.81.587-1.81h3.461a1 1 0 0 0 .951-.69L7.05.927Z"/></svg></svg>