<?xml version="1.0" encoding="utf-8"?><svg viewBox="0 0 800 800" xmlns="http://www.w3.org/2000/svg" xmlns:xlink="http://www.w3.org/1999/xlink"><style>:root>svg{display:none}:root>svg:target{display:block}</style><svg viewBox="0 0 24 24" id="arrow-right" xmlns="http://www.w3.org/2000/svg"><path d="M17.92 11.62a1.001 1.001 0 0 0-.21-.33l-5-5a1.003 1.003 0 1 0-1.42 1.42l3.3 3.29H7a1 1 0 0 0 0 2h7.59l-3.3 3.29a1.002 1.002 0 0 0 .325 1.639 1 1 0 0 0 1.095-.219l5-5a1 1 0 0 0 .21-.33 1 1 0 0 0 0-.76Z"/></svg><svg viewBox="0 0 8 14" id="icon-arrow-left" xmlns="http://www.w3.org/2000/svg"><path d="m.423 7.424 5.563 5.746a1 1 0 1 0 1.444-1.386L2.566 6.701l5.033-4.865a1 1 0 0 0 .024-1.41 1 1 0 0 0-.705-.312 1 1 0 0 0-.715.288L.448 5.955a1 1 0 0 0-.025 1.47Z"/></svg><svg viewBox="0 0 8 14" id="icon-arrow-right" xmlns="http://www.w3.org/2000/svg"><path d="M7.37 5.946 1.71.296a1 1 0 1 0-1.42 1.41l4.95 5-4.95 4.95a1 1 0 0 0 0 1.41 1 1 0 0 0 .71.3 1.003 1.003 0 0 0 .71-.3l5.66-5.65a1 1 0 0 0 0-1.47Z"/></svg><svg viewBox="0 0 24 24" id="icon-arrow-right2" xmlns="http://www.w3.org/2000/svg"><path d="M4 12h16m0 0-6-6m6 6-6 6"/></svg><svg viewBox="0 0 28 28" id="icon-burger" xmlns="http://www.w3.org/2000/svg"><path d="M4 7a1 1 0 0 1 1-1h19a1 1 0 1 1 0 2H5a1 1 0 0 1-1-1ZM4 14a1 1 0 0 1 1-1h11a1 1 0 1 1 0 2H5a1 1 0 0 1-1-1ZM5 20a1 1 0 1 0 0 2h17a1 1 0 1 0 0-2H5Z"/></svg><svg viewBox="0 0 24 24" id="icon-cart-empty" xmlns="http://www.w3.org/2000/svg"><path d="M7.5 18a1.5 1.5 0 1 1 0 3 1.5 1.5 0 0 1 0-3ZM16.5 18a1.5 1.5 0 1 1 0 3 1.5 1.5 0 0 1 0-3ZM2.261 3.092l.249-.708-.249.708Zm-.012-.8a.75.75 0 1 0-.498 1.416l.498-1.416Zm2.337 2.031.62-.423-.62.423Zm1.302 10.263-.545.516.545-.516Zm14.77-4.703.734.151.001-.004-.735-.147Zm-.5 2.425.735.15-.735-.15Zm.576-5.61-.594.456.595-.457Zm-1.6 8.352-.474-.581.474.581ZM5.708 9.76V7.038h-1.5V9.76h1.5ZM2.51 2.384l-.261-.092-.498 1.416.261.091.498-1.415Zm8.428 13.866h5.302v-1.5h-5.302v1.5Zm-5.23-9.212c0-.707.001-1.297-.05-1.776-.055-.497-.171-.95-.453-1.362l-1.238.846c.09.132.16.314.199.677.041.38.042.875.042 1.615h1.5ZM2.012 3.8c.668.235 1.107.39 1.43.55.303.148.437.268.525.397L5.205 3.9c-.284-.416-.662-.682-1.103-.899-.42-.206-.958-.394-1.592-.617L2.012 3.8ZM4.208 9.76c0 1.453.014 2.5.15 3.3.147.854.44 1.466.985 2.042l1.089-1.032c-.32-.338-.493-.668-.595-1.263-.11-.65-.129-1.558-.129-3.047h-1.5Zm6.73 4.99c-1.417 0-2.4-.002-3.141-.107-.715-.101-1.092-.285-1.365-.573l-1.089 1.032c.594.627 1.347.9 2.243 1.026.87.124 1.98.122 3.351.122v-1.5Zm-5.98-7.88h12.13v-1.5H4.959v1.5Zm14.965 2.861-.5 2.425 1.47.303.5-2.425-1.47-.303ZM17.09 6.87c.856 0 1.61.001 2.205.067.295.034.517.08.672.134.161.057.187.1.174.083l1.189-.914c-.235-.306-.565-.479-.866-.584a4.616 4.616 0 0 0-1.003-.21c-.695-.077-1.543-.076-2.371-.076v1.5Zm4.304 3.16c.17-.848.313-1.56.348-2.13.037-.586-.03-1.164-.412-1.66l-1.189.914c.062.081.13.226.104.654-.027.444-.144 1.037-.322 1.928l1.471.294Zm-5.153 6.22c.762 0 1.401.001 1.917-.062.535-.065 1.024-.209 1.45-.556l-.947-1.163c-.125.102-.303.184-.686.23-.403.05-.934.051-1.734.051v1.5Zm3.184-4.094c-.162.783-.27 1.303-.4 1.688-.123.366-.239.523-.364.625l.947 1.163c.427-.348.666-.797.838-1.309.166-.492.294-1.118.448-1.864l-1.47-.303Z"/></svg><svg viewBox="0 0 20 20" id="icon-cart-empty2" xmlns="http://www.w3.org/2000/svg"><g clip-path="url(#ga)"><path d="M19.703 7.229a1.382 1.382 0 0 0-1.087-.521h-3.852l-2.088-4.783a.586.586 0 1 0-1.074.47l1.883 4.313h-6.97l1.883-4.314a.586.586 0 0 0-1.074-.469L5.236 6.708H1.384c-.427 0-.823.19-1.087.521a1.35 1.35 0 0 0-.263 1.148l2.057 8.984a1.373 1.373 0 0 0 1.35 1.065h13.118c.651 0 1.206-.438 1.35-1.065l2.056-8.984a1.35 1.35 0 0 0-.262-1.148ZM16.56 17.254H3.441a.21.21 0 0 1-.207-.155L1.177 8.115a.179.179 0 0 1 .036-.156.213.213 0 0 1 .171-.08h3.34l-.153.352a.586.586 0 0 0 1.073.47l.359-.821h7.994l.359.82a.586.586 0 1 0 1.074-.469l-.154-.351h3.34c.093 0 .147.05.17.08a.18.18 0 0 1 .037.155l-2.057 8.984a.21.21 0 0 1-.207.155Z"/><path d="M19.703 7.229a1.382 1.382 0 0 0-1.087-.521h-3.852l-2.088-4.783a.586.586 0 1 0-1.074.47l1.883 4.313h-6.97l1.883-4.314a.586.586 0 0 0-1.074-.469L5.236 6.708H1.384c-.427 0-.823.19-1.087.521a1.35 1.35 0 0 0-.263 1.148l2.057 8.984a1.373 1.373 0 0 0 1.35 1.065h13.118c.651 0 1.206-.438 1.35-1.065l2.056-8.984a1.35 1.35 0 0 0-.262-1.148ZM16.56 17.254H3.441a.21.21 0 0 1-.207-.155L1.177 8.115a.179.179 0 0 1 .036-.156.213.213 0 0 1 .171-.08h3.34l-.153.352a.586.586 0 0 0 1.073.47l.359-.821h7.994l.359.82a.586.586 0 1 0 1.074-.469l-.154-.351h3.34c.093 0 .147.05.17.08a.18.18 0 0 1 .037.155l-2.057 8.984a.21.21 0 0 1-.207.155Z"/><path d="M6.484 10.419a.586.586 0 0 0-.586.586v4.297a.586.586 0 0 0 1.172 0v-4.297a.586.586 0 0 0-.586-.586Z"/><path d="M6.484 10.419a.586.586 0 0 0-.586.586v4.297a.586.586 0 0 0 1.172 0v-4.297a.586.586 0 0 0-.586-.586ZM10 10.419a.586.586 0 0 0-.586.586v4.297a.586.586 0 0 0 1.172 0v-4.297a.586.586 0 0 0-.586-.586Z"/><path d="M10 10.419a.586.586 0 0 0-.586.586v4.297a.586.586 0 0 0 1.172 0v-4.297a.586.586 0 0 0-.586-.586ZM13.516 10.419a.586.586 0 0 0-.586.586v4.297a.586.586 0 1 0 1.172 0v-4.297a.586.586 0 0 0-.586-.586Z"/><path d="M13.516 10.419a.586.586 0 0 0-.586.586v4.297a.586.586 0 1 0 1.172 0v-4.297a.586.586 0 0 0-.586-.586Z"/></g><defs><clipPath id="ga"><path d="M0 0h20v20H0z"/></clipPath></defs></svg><svg viewBox="0 0 1024 1024" id="icon-close" xmlns="http://www.w3.org/2000/svg"><path d="M764.288 214.592 512 466.88 259.712 214.592a31.936 31.936 0 0 0-45.12 45.12L466.752 512 214.528 764.224a31.936 31.936 0 1 0 45.12 45.184L512 557.184l252.288 252.288a31.936 31.936 0 0 0 45.12-45.12L557.12 512.064l252.288-252.352a31.936 31.936 0 1 0-45.12-45.184z"/></svg><svg viewBox="0 0 20 20" id="icon-compare" xmlns="http://www.w3.org/2000/svg"><mask id="ia"><path d="M19.414 11.266h-.637L16.735 6.32a.586.586 0 0 0-.08-1.169h-5.037A1.737 1.737 0 0 0 9.986 4c-.751 0-1.392.48-1.633 1.15H3.345a.587.587 0 0 0-.08 1.169l-2.042 4.947H.586a.586.586 0 0 0-.586.587A4.147 4.147 0 0 0 4.139 16a4.147 4.147 0 0 0 4.139-4.147.586.586 0 0 0-.586-.587h-.638L5.015 6.325h3.338c.241.67.882 1.15 1.633 1.15.75 0 1.39-.48 1.632-1.15h3.367l-2.04 4.941h-.637a.586.586 0 0 0-.586.587A4.147 4.147 0 0 0 15.862 16 4.147 4.147 0 0 0 20 11.853a.586.586 0 0 0-.586-.587ZM4.14 14.826A2.973 2.973 0 0 1 1.23 12.44h5.818a2.973 2.973 0 0 1-2.91 2.386Zm1.647-3.56H2.492l1.647-3.992 1.647 3.992Zm4.2-4.965a.564.564 0 1 1 .002-1.127.564.564 0 0 1-.002 1.127Zm5.875.973 1.648 3.992h-3.295l1.647-3.992Zm0 7.552a2.973 2.973 0 0 1-2.909-2.386h5.818a2.973 2.973 0 0 1-2.909 2.386Z"/></mask><path d="M19.414 11.266h-.637L16.735 6.32a.586.586 0 0 0-.08-1.169h-5.037A1.737 1.737 0 0 0 9.986 4c-.751 0-1.392.48-1.633 1.15H3.345a.587.587 0 0 0-.08 1.169l-2.042 4.947H.586a.586.586 0 0 0-.586.587A4.147 4.147 0 0 0 4.139 16a4.147 4.147 0 0 0 4.139-4.147.586.586 0 0 0-.586-.587h-.638L5.015 6.325h3.338c.241.67.882 1.15 1.633 1.15.75 0 1.39-.48 1.632-1.15h3.367l-2.04 4.941h-.637a.586.586 0 0 0-.586.587A4.147 4.147 0 0 0 15.862 16 4.147 4.147 0 0 0 20 11.853a.586.586 0 0 0-.586-.587ZM4.14 14.826A2.973 2.973 0 0 1 1.23 12.44h5.818a2.973 2.973 0 0 1-2.91 2.386Zm1.647-3.56H2.492l1.647-3.992 1.647 3.992Zm4.2-4.965a.564.564 0 1 1 .002-1.127.564.564 0 0 1-.002 1.127Zm5.875.973 1.648 3.992h-3.295l1.647-3.992Zm0 7.552a2.973 2.973 0 0 1-2.909-2.386h5.818a2.973 2.973 0 0 1-2.909 2.386Z" mask="url(#ia)"/></svg><svg viewBox="0 0 20 20" id="icon-del" xmlns="http://www.w3.org/2000/svg"><path d="M7.031 3.594h-.156c.086 0 .156-.07.156-.156v.156h5.938v-.156c0 .085.07.156.156.156h-.156V5h1.406V3.437c0-.689-.56-1.25-1.25-1.25h-6.25c-.69 0-1.25.561-1.25 1.25V5h1.406V3.594ZM16.875 5H3.125a.624.624 0 0 0-.625.625v.625c0 .086.07.156.156.156h1.18l.482 10.215a1.251 1.251 0 0 0 1.248 1.192h8.868c.668 0 1.216-.524 1.248-1.192l.482-10.215h1.18c.086 0 .156-.07.156-.156v-.625A.624.624 0 0 0 16.875 5Zm-2.592 11.406H5.717l-.473-10h9.512l-.473 10Z"/></svg><svg viewBox="0 0 16 17" id="icon-electric-bike" xmlns="http://www.w3.org/2000/svg"><g clip-path="url(#ka)"><path d="m12.296 7.103-.845-2.555h.71a.518.518 0 0 0 .516-.516.518.518 0 0 0-.516-.516h-1.423c-.351 0-.6.345-.49.678l.507 1.532-.368.468H5.98l-.564-.936h.129a.518.518 0 0 0 .516-.516.518.518 0 0 0-.516-.516H3.932a.518.518 0 0 0-.516.516c0 .284.232.516.516.516h.277l2.72 4.516H6.36c-.4-2.49-3.52-3.655-5.423-1.751a3.18 3.18 0 0 0 0 4.519c1.855 1.855 4.997.81 5.42-1.736h1.48c.159 0 .31-.074.407-.196l2.897-3.704.17.52a3.216 3.216 0 0 0-1.735 2.848 3.212 3.212 0 0 0 6.423 0 3.213 3.213 0 0 0-3.704-3.17ZM4.567 9.774a1.488 1.488 0 1 0-.006 1.036h.748a2.176 2.176 0 0 1-2.106 1.645 2.174 2.174 0 0 1-2.171-2.171c0-1.197.974-2.171 2.171-2.171 1.023 0 1.88.71 2.11 1.661h-.746ZM7.9 9.377 6.603 7.226H9.58L7.9 9.377Zm4.89 3.075a2.178 2.178 0 0 1-1.145-4.029l.229.69a1.487 1.487 0 1 0 2.406 1.168c0-.8-.629-1.452-1.422-1.484l-.23-.694a2.178 2.178 0 0 1 2.343 2.171 2.186 2.186 0 0 1-2.181 2.178Z"/></g><defs><clipPath id="ka"><path transform="translate(0 .5)" d="M0 0h16v16H0z"/></clipPath></defs></svg><svg viewBox="0 0 16 17" id="icon-electric-scooter" xmlns="http://www.w3.org/2000/svg"><g clip-path="url(#la)"><path d="M10.969 13.337H5.027a2.949 2.949 0 0 1 0 2.269h5.942a2.949 2.949 0 0 1 0-2.269ZM13.835 11.51 12.685.5h-3.11v.937h2.266l1.063 10.182a2.957 2.957 0 0 1 .93-.11ZM15.74 14.472a2.03 2.03 0 0 0-2.028-2.028 2.03 2.03 0 0 0-2.028 2.028 2.03 2.03 0 0 0 2.028 2.028 2.03 2.03 0 0 0 2.028-2.028ZM8 8.09c.74 0 1.453.311 1.956.854l.688-.637A3.616 3.616 0 0 0 8 7.152c-1 0-1.964.421-2.645 1.155l.688.637A2.676 2.676 0 0 1 8 8.09Z"/><path d="m6.508 9.747.775.527a.863.863 0 0 1 1.428 0l.776-.527a1.8 1.8 0 0 0-2.98 0ZM4.318 14.472a2.03 2.03 0 0 0-2.028-2.028 2.03 2.03 0 0 0-2.028 2.028A2.03 2.03 0 0 0 2.29 16.5a2.03 2.03 0 0 0 2.028-2.028Z"/></g><defs><clipPath id="la"><path transform="translate(0 .5)" d="M0 0h16v16H0z"/></clipPath></defs></svg><svg viewBox="0 0 24 24" id="icon-heart-empty" xmlns="http://www.w3.org/2000/svg"><path d="m8.962 18.91.464-.588-.464.589ZM12 5.5l-.54.52a.75.75 0 0 0 1.08 0L12 5.5Zm3.038 13.41.465.59-.465-.59Zm-5.612-.588C7.91 17.127 6.253 15.96 4.938 14.48 3.65 13.028 2.75 11.334 2.75 9.137h-1.5c0 2.666 1.11 4.7 2.567 6.339 1.43 1.61 3.254 2.9 4.68 4.024l.93-1.178ZM2.75 9.137c0-2.15 1.215-3.954 2.874-4.713 1.612-.737 3.778-.541 5.836 1.597l1.08-1.04C10.1 2.444 7.264 2.025 5 3.06 2.786 4.073 1.25 6.425 1.25 9.137h1.5ZM8.497 19.5c.513.404 1.063.834 1.62 1.16.557.325 1.193.59 1.883.59v-1.5c-.31 0-.674-.12-1.126-.385-.453-.264-.922-.628-1.448-1.043L8.497 19.5Zm7.006 0c1.426-1.125 3.25-2.413 4.68-4.024 1.457-1.64 2.567-3.673 2.567-6.339h-1.5c0 2.197-.9 3.891-2.188 5.343-1.315 1.48-2.972 2.647-4.488 3.842l.929 1.178ZM22.75 9.137c0-2.712-1.535-5.064-3.75-6.077-2.264-1.035-5.098-.616-7.54 1.92l1.08 1.04c2.058-2.137 4.224-2.333 5.836-1.596 1.659.759 2.874 2.562 2.874 4.713h1.5Zm-8.176 9.185c-.526.415-.995.779-1.448 1.043-.452.264-.816.385-1.126.385v1.5c.69 0 1.326-.265 1.883-.59.558-.326 1.107-.756 1.62-1.16l-.929-1.178Z"/></svg><svg viewBox="0 0 24 24" id="icon-heart-filled" xmlns="http://www.w3.org/2000/svg"><path d="M2 9.137C2 14 6.02 16.591 8.962 18.911 10 19.729 11 20.5 12 20.5s2-.77 3.038-1.59C17.981 16.592 22 14 22 9.138c0-4.863-5.5-8.312-10-3.636C7.5.825 2 4.274 2 9.137Z"/></svg><svg viewBox="0 0 8 8" id="icon-plus" xmlns="http://www.w3.org/2000/svg"><path d="M0 4.653h8V3.347H0v1.306ZM3.299 0v8h1.402V0H3.299Z"/></svg><svg viewBox="0 0 16 17" id="icon-scooter" xmlns="http://www.w3.org/2000/svg"><g clip-path="url(#pa)"><path d="m9.573 5.268.862-.375L8.834.891H6.512v.939h1.686l1.375 3.438ZM14.256 11.271l-2.543-5.908-2.7 1.174.651 1.512-2.324 4.114H5.98a2.96 2.96 0 0 0-2.958-3.006H0v.94h3.022c1.066 0 2.02.841 2.02 2.066h-.55a2.476 2.476 0 0 0-2.832-.853A2.478 2.478 0 0 0 .035 13.5a2.475 2.475 0 0 0 4.458 1.606H8.79l2.225-3.92.46 1.067a2.47 2.47 0 0 0 .112 2.914 2.468 2.468 0 0 0 3.753.148c1.245-1.343.642-3.512-1.084-4.044Z"/></g><defs><clipPath id="pa"><path transform="translate(0 .5)" d="M0 0h16v16H0z"/></clipPath></defs></svg><svg viewBox="0 0 16 17" id="icon-search" xmlns="http://www.w3.org/2000/svg"><path fill-rule="evenodd" clip-rule="evenodd" d="m11.813 11.276 3.944 4.208a.913.913 0 0 1-.024 1.266.857.857 0 0 1-1.234-.024l-3.974-4.24a6.505 6.505 0 0 1-3.834 1.241C3.001 13.727 0 10.648 0 6.864 0 3.079 3.002 0 6.691 0c3.69 0 6.691 3.08 6.691 6.864 0 1.62-.555 3.176-1.57 4.412Zm-.176-4.412c0-2.798-2.219-5.073-4.946-5.073S1.746 4.066 1.746 6.864c0 2.797 2.218 5.073 4.945 5.073 2.727 0 4.946-2.276 4.946-5.073Z"/></svg><svg viewBox="0 0 90 14" id="icon-stars-group" xmlns="http://www.w3.org/2000/svg"><path d="m7 0 1.847 4.457 4.81.38L9.99 7.97l1.125 4.692L7 10.143l-4.114 2.52L4.01 7.971.343 4.837l4.81-.38L7 0ZM26 0l1.847 4.457 4.81.38L28.99 7.97l1.125 4.692L26 10.143l-4.114 2.52 1.125-4.692-3.668-3.134 4.81-.38L26 0ZM45 0l1.847 4.457 4.81.38L47.99 7.97l1.126 4.692L45 10.143l-4.114 2.52 1.125-4.692-3.668-3.134 4.81-.38L45 0ZM64 0l1.847 4.457 4.81.38L66.99 7.97l1.126 4.692L64 10.143l-4.114 2.52 1.125-4.692-3.668-3.134 4.81-.38L64 0ZM83 0l1.847 4.457 4.81.38L85.99 7.97l1.126 4.692L83 10.143l-4.115 2.52 1.126-4.692-3.668-3.134 4.81-.38L83 0Z"/></svg><svg viewBox="0 0 16 14" id="icon-telegram" xmlns="http://www.w3.org/2000/svg"><path d="m6.278 9.121-.265 3.723c.38 0 .543-.163.74-.358l1.775-1.697 3.679 2.694c.675.376 1.15.178 1.332-.62l2.415-11.315C16.168.55 15.594.16 14.936.403L.743 5.838C-.226 6.214-.211 6.754.578 7l3.629 1.129 8.428-5.274c.397-.263.758-.118.461.145L6.278 9.121Z"/></svg><svg viewBox="0 0 25 30" id="icon-triangle" xmlns="http://www.w3.org/2000/svg"><path d="M24 13.268c1.333.77 1.333 2.694 0 3.464L3 28.856c-1.333.77-3-.192-3-1.732V2.876C0 1.336 1.667.374 3 1.144l21 12.124Z"/></svg><svg viewBox="0 0 16 17" id="icon-vacuum-cleaner" xmlns="http://www.w3.org/2000/svg"><g clip-path="url(#ua)"><path d="m2.691 2.52.837.836a6.765 6.765 0 0 1 4.47-1.671 6.836 6.836 0 0 1 2.093.326 6.76 6.76 0 0 1 2.378 1.345l.837-.837A7.967 7.967 0 0 0 7.999.5 7.967 7.967 0 0 0 2.69 2.52Z"/><path d="m13.98 3.193-.836.836A6.764 6.764 0 0 1 14.815 8.5c0 1.82-.709 3.532-1.996 4.82A6.77 6.77 0 0 1 8 15.314a6.771 6.771 0 0 1-4.82-1.996A6.77 6.77 0 0 1 1.186 8.5c0-1.66.59-3.23 1.67-4.47l-.836-.837A7.967 7.967 0 0 0 0 8.5c0 4.411 3.589 8 8 8s8-3.589 8-8a7.967 7.967 0 0 0-2.02-5.307Z"/><path d="M8 2.637c-.501 0-.989.064-1.454.183.009 1.018-.003 5.37-.003 5.569 0 .58.198 1.126.725 1.433a1.488 1.488 0 0 0 1.452.007c.558-.316.698-.831.73-1.392.008-.124.009-4.777.009-5.616A5.853 5.853 0 0 0 8 2.637Zm0 6.34a.484.484 0 0 1-.475-.477c-.012-.257.227-.476.476-.476.267 0 .464.218.476.476.012.257-.227.476-.476.476Z"/><path d="M5.59 3.156A5.871 5.871 0 0 0 2.136 8.5 5.87 5.87 0 0 0 8 14.363 5.87 5.87 0 0 0 13.863 8.5a5.871 5.871 0 0 0-3.453-5.344v4.806c0 .449.027.908-.117 1.34a2.44 2.44 0 0 1-2.725 1.628C6.428 10.74 5.6 9.698 5.589 8.56c-.01-1.027 0-2.054 0-3.08V3.156Z"/></g><defs><clipPath id="ua"><path transform="translate(0 .5)" d="M0 0h16v16H0z"/></clipPath></defs></svg><svg viewBox="0 0 12 12" id="icon-viber" xmlns="http://www.w3.org/2000/svg"><path d="M11.496 4.235c0-1.127-.442-2.19-1.244-2.991A4.205 4.205 0 0 0 7.26 0H4.75C3.625 0 2.562.442 1.76 1.244A4.205 4.205 0 0 0 .515 4.235v1.973c0 .873.266 1.712.77 2.428a4.25 4.25 0 0 0 1.738 1.437v1.133c0 .586.328.794.61.794.2 0 .4-.1.596-.294l1.262-1.263h1.769c1.127 0 2.189-.441 2.991-1.244a4.205 4.205 0 0 0 1.244-2.991V4.235ZM8.272 7.58l-.932.932a1.284 1.284 0 0 1-.914.377c-.346 0-.671-.134-.915-.377L2.583 5.58a1.295 1.295 0 0 1 0-1.828l.932-.932a.351.351 0 0 1 .497 0l1.331 1.331a.351.351 0 0 1 0 .498l-.284.284 1.1 1.1.284-.284a.352.352 0 0 1 .498 0l1.331 1.331a.351.351 0 0 1 0 .498ZM5.739 3.413c0-.194.158-.352.352-.352 1.218 0 2.21.991 2.21 2.21a.352.352 0 1 1-.704 0c0-.83-.676-1.506-1.506-1.506a.352.352 0 0 1-.352-.352Zm3.716 2.21a.352.352 0 0 1-.352-.352c0-.805-.313-1.561-.882-2.13a2.993 2.993 0 0 0-2.13-.883.352.352 0 0 1 0-.703c.992 0 1.925.387 2.627 1.088a3.69 3.69 0 0 1 1.088 2.628.352.352 0 0 1-.351.351Z"/></svg><svg viewBox="0 0 16 17" id="icon-weighing-scale" xmlns="http://www.w3.org/2000/svg"><g clip-path="url(#wa)"><path d="M13.523.5H2.477A2.48 2.48 0 0 0 0 2.977v11.046A2.48 2.48 0 0 0 2.477 16.5h11.046A2.48 2.48 0 0 0 16 14.023V2.977A2.48 2.48 0 0 0 13.523.5Zm-1.287 4.427L10.46 6.702a.469.469 0 0 1-.663 0A2.528 2.528 0 0 0 8 5.956c-.679 0-1.317.265-1.798.746a.469.469 0 0 1-.663 0L3.764 4.927a.469.469 0 0 1 0-.663A5.952 5.952 0 0 1 8 2.508c1.6 0 3.104.624 4.236 1.756a.469.469 0 0 1 0 .663Z"/><path d="m4.773 4.61 1.12 1.12A3.454 3.454 0 0 1 8 5.018c.771 0 1.505.25 2.108.71l1.118-1.119A5.014 5.014 0 0 0 8 3.446c-1.192 0-2.321.41-3.227 1.164Z"/></g><defs><clipPath id="wa"><path transform="translate(0 .5)" d="M0 0h16v16H0z"/></clipPath></defs></svg><svg viewBox="0 0 32 32" xml:space="preserve" id="icon-whatsapp" xmlns="http://www.w3.org/2000/svg"><path d="M17 0C8.7 0 2 6.7 2 15c0 3.4 1.1 6.6 3.2 9.2l-2.1 6.4c-.1.4 0 .8.3 1.1.1.2.4.3.6.3.1 0 .3 0 .4-.1l6.9-3.1c1.8.8 3.7 1.2 5.7 1.2 8.3 0 15-6.7 15-15S25.3 0 17 0zm8.7 20.5c-.4 1.2-1.9 2.2-3.2 2.4-.3.1-.6.1-1 .1-.8 0-2-.2-4.1-1.1-2.4-1-4.8-3.1-6.7-5.8V16c-.6-.9-1.7-2.6-1.7-4.4 0-2.2 1.1-3.3 1.5-3.8.5-.5 1.2-.8 2-.8h.5c.7 0 1.2.2 1.7 1.2l.4.8c.3.8.7 1.7.8 1.8.3.6.3 1.1 0 1.6-.1.3-.3.5-.5.7-.1.2-.2.3-.3.3l-.2.2c.3.5.9 1.4 1.7 2.1 1.2 1.1 2.1 1.4 2.6 1.6.2-.2.4-.6.7-.9l.1-.2c.5-.7 1.3-.9 2.1-.6.4.2 2.6 1.2 2.6 1.2l.2.1c.3.2.7.3.9.7.4.9.1 2.2-.1 2.9z"/></svg><svg viewBox="0 0 19 29" id="icon-yandex" xmlns="http://www.w3.org/2000/svg"><path d="M19 29h-4.993V3.92h-2.23c-4.083 0-6.218 2.071-6.218 5.162 0 3.506 1.476 5.131 4.522 7.203l2.512 1.72L5.37 29H0l6.5-9.815C2.765 16.475.66 13.83.66 9.369.66 3.792 4.49 0 11.745 0h7.224v29H19Z"/></svg></svg>