<svg width="773" height="196" viewBox="0 0 773 196" fill="none" xmlns="http://www.w3.org/2000/svg">
<g opacity="0.23">
<mask id="path-1-outside-1_182_80" maskUnits="userSpaceOnUse" x="-1" y="-2.4585" width="775" height="231" fill="black">
<rect fill="white" x="-1" y="-2.4585" width="775" height="231"/>
<path d="M0.69786 10.2915V215.542H52.0104V10.2915H0.69786ZM121.795 10.2915L37.6429 107.932L124.141 215.542H184.25L96.579 106.466L179.852 10.2915H121.795ZM205.719 10.2915V215.542H256.152V10.2915H205.719ZM350.658 122.593L408.422 215.542H466.478L402.264 122.593H350.658ZM299.639 10.2915V215.542H349.192V10.2915H299.639ZM330.72 52.2211H370.89C377.536 52.2211 383.205 53.2962 387.897 55.4465C392.783 57.5967 396.497 60.7243 399.039 64.8293C401.58 68.7389 402.85 73.528 402.85 79.1968C402.85 84.8656 401.58 89.7526 399.039 93.8576C396.497 97.7671 392.783 100.797 387.897 102.947C383.205 104.902 377.536 105.879 370.89 105.879H330.72V144.29H374.409C392.002 144.29 406.662 141.456 418.391 135.787C430.119 130.118 439.014 122.299 445.073 112.33C451.133 102.165 454.163 90.5345 454.163 77.4376C454.163 64.1452 451.133 52.5143 445.073 42.545C439.014 32.3803 430.119 24.4635 418.391 18.7947C406.662 13.1259 392.002 10.2915 374.409 10.2915H330.72V52.2211ZM489.484 10.2915V215.542H539.917V10.2915H489.484ZM725.027 10.2915V125.818L583.404 0.0289709V215.542H630.905V100.015L772.82 225.804V10.2915H725.027Z"/>
</mask>
<path d="M0.697861 10.2915V9.27473H-0.318872V10.2915H0.697861ZM0.697861 215.542H-0.318872V216.558H0.697861V215.542ZM52.0104 215.542V216.558H53.0271V215.542H52.0104ZM52.0104 10.2915H53.0271V9.27473H52.0104V10.2915ZM121.795 10.2915V9.27473H121.329L121.025 9.62769L121.795 10.2915ZM37.6429 107.932L36.8727 107.268L36.3202 107.909L36.8504 108.569L37.6429 107.932ZM124.141 215.542L123.349 216.178L123.654 216.558H124.141V215.542ZM184.25 215.542V216.558H186.372L185.043 214.905L184.25 215.542ZM96.5789 106.466L95.8103 105.8L95.255 106.442L95.7865 107.103L96.5789 106.466ZM179.852 10.2915L180.62 10.957L182.077 9.27473H179.852V10.2915ZM-0.318872 10.2915V215.542H1.71459V10.2915H-0.318872ZM0.697861 216.558H52.0104V214.525H0.697861V216.558ZM53.0271 215.542V10.2915H50.9936V215.542H53.0271ZM52.0104 9.27473H0.697861V11.3082H52.0104V9.27473ZM121.025 9.62769L36.8727 107.268L38.413 108.596L122.566 10.9552L121.025 9.62769ZM36.8504 108.569L123.349 216.178L124.934 214.905L38.4353 107.295L36.8504 108.569ZM124.141 216.558H184.25V214.525H124.141V216.558ZM185.043 214.905L97.3714 105.829L95.7865 107.103L183.458 216.178L185.043 214.905ZM97.3476 107.131L180.62 10.957L179.083 9.62593L95.8103 105.8L97.3476 107.131ZM179.852 9.27473H121.795V11.3082H179.852V9.27473ZM205.719 10.2915V9.27473H204.702V10.2915H205.719ZM205.719 215.542H204.702V216.558H205.719V215.542ZM256.152 215.542V216.558H257.168V215.542H256.152ZM256.152 10.2915H257.168V9.27473H256.152V10.2915ZM204.702 10.2915V215.542H206.736V10.2915H204.702ZM205.719 216.558H256.152V214.525H205.719V216.558ZM257.168 215.542V10.2915H255.135V215.542H257.168ZM256.152 9.27473H205.719V11.3082H256.152V9.27473ZM350.658 122.593V121.576H348.829L349.795 123.129L350.658 122.593ZM408.422 215.542L407.558 216.078L407.856 216.558H408.422V215.542ZM466.478 215.542V216.558H468.416L467.314 214.964L466.478 215.542ZM402.264 122.593L403.101 122.015L402.797 121.576H402.264V122.593ZM299.639 10.2915V9.27473H298.622V10.2915H299.639ZM299.639 215.542H298.622V216.558H299.639V215.542ZM349.192 215.542V216.558H350.209V215.542H349.192ZM349.192 10.2915H350.209V9.27473H349.192V10.2915ZM330.72 52.2211H329.703V53.2378H330.72V52.2211ZM387.897 55.4465L387.473 56.3708L387.48 56.374L387.487 56.3771L387.897 55.4465ZM399.039 64.8293L398.174 65.3645L398.18 65.374L398.186 65.3835L399.039 64.8293ZM399.039 93.8576L399.891 94.4117L399.897 94.4023L399.903 94.3927L399.039 93.8576ZM387.897 102.947L388.288 103.886L388.297 103.882L388.306 103.878L387.897 102.947ZM330.72 105.879V104.863H329.703V105.879H330.72ZM330.72 144.29H329.703V145.307H330.72V144.29ZM418.391 135.787L418.833 136.703L418.391 135.787ZM445.073 112.33L445.942 112.858L445.947 112.851L445.073 112.33ZM445.073 42.545L444.2 43.0657L444.205 43.0732L445.073 42.545ZM418.391 18.7947L417.948 19.7101L418.391 18.7947ZM330.72 10.2915V9.27473H329.703V10.2915H330.72ZM349.795 123.129L407.558 216.078L409.285 215.005L351.522 122.056L349.795 123.129ZM408.422 216.558H466.478V214.525H408.422V216.558ZM467.314 214.964L403.101 122.015L401.428 123.17L465.641 216.119L467.314 214.964ZM402.264 121.576H350.658V123.609H402.264V121.576ZM298.622 10.2915V215.542H300.656V10.2915H298.622ZM299.639 216.558H349.192V214.525H299.639V216.558ZM350.209 215.542V10.2915H348.176V215.542H350.209ZM349.192 9.27473H299.639V11.3082H349.192V9.27473ZM330.72 53.2378H370.89V51.2044H330.72V53.2378ZM370.89 53.2378C377.431 53.2378 382.947 54.2963 387.473 56.3708L388.32 54.5222C383.463 52.2962 377.642 51.2044 370.89 51.2044V53.2378ZM387.487 56.3771C392.207 58.4537 395.753 61.4527 398.174 65.3645L399.903 64.2942C397.242 59.996 393.36 56.7397 388.306 54.5159L387.487 56.3771ZM398.186 65.3835C400.599 69.0955 401.834 73.6819 401.834 79.1968H403.867C403.867 73.3741 402.561 68.3822 399.891 64.2752L398.186 65.3835ZM401.834 79.1968C401.834 84.71 400.6 89.4044 398.174 93.3224L399.903 94.3927C402.56 90.1007 403.867 85.0213 403.867 79.1968H401.834ZM398.186 93.3035C395.768 97.0239 392.22 99.9342 387.487 102.017L388.306 103.878C393.347 101.66 397.227 98.5103 399.891 94.4117L398.186 93.3035ZM387.505 102.009C382.97 103.899 377.441 104.863 370.89 104.863V106.896C377.631 106.896 383.44 105.905 388.288 103.886L387.505 102.009ZM370.89 104.863H330.72V106.896H370.89V104.863ZM329.703 105.879V144.29H331.736V105.879H329.703ZM330.72 145.307H374.409V143.274H330.72V145.307ZM374.409 145.307C392.104 145.307 406.927 142.457 418.833 136.703L417.948 134.872C406.397 140.455 391.899 143.274 374.409 143.274V145.307ZM418.833 136.703C430.717 130.959 439.769 123.014 445.942 112.858L444.205 111.802C438.258 121.585 429.522 129.278 417.948 134.872L418.833 136.703ZM445.947 112.851C452.11 102.512 455.18 90.6976 455.18 77.4375H453.146C453.146 90.3713 450.156 101.819 444.2 111.809L445.947 112.851ZM455.18 77.4375C455.18 63.9854 452.112 52.1666 445.942 42.0169L444.205 43.0732C450.155 52.862 453.146 64.3049 453.146 77.4375H455.18ZM445.947 42.0244C439.775 31.6716 430.722 23.6256 418.833 17.8793L417.948 19.7101C429.517 25.3014 438.252 33.0889 444.2 43.0657L445.947 42.0244ZM418.833 17.8793C406.927 12.1247 392.104 9.27473 374.409 9.27473V11.3082C391.899 11.3082 406.397 14.1271 417.948 19.7101L418.833 17.8793ZM374.409 9.27473H330.72V11.3082H374.409V9.27473ZM329.703 10.2915V52.2211H331.736V10.2915H329.703ZM489.484 10.2915V9.27473H488.467V10.2915H489.484ZM489.484 215.542H488.467V216.558H489.484V215.542ZM539.917 215.542V216.558H540.933V215.542H539.917ZM539.917 10.2915H540.933V9.27473H539.917V10.2915ZM488.467 10.2915V215.542H490.501V10.2915H488.467ZM489.484 216.558H539.917V214.525H489.484V216.558ZM540.933 215.542V10.2915H538.9V215.542H540.933ZM539.917 9.27473H489.484V11.3082H539.917V9.27473ZM725.027 10.2915V9.27473H724.01V10.2915H725.027ZM725.027 125.818L724.351 126.578L726.043 128.081V125.818H725.027ZM583.404 0.0289688L584.079 -0.731209L582.387 -2.23396V0.0289688H583.404ZM583.404 215.542H582.387V216.558H583.404V215.542ZM630.905 215.542V216.558H631.922V215.542H630.905ZM630.905 100.015L631.579 99.2542L629.888 97.7552V100.015H630.905ZM772.82 225.804L772.146 226.565L773.837 228.064V225.804H772.82ZM772.82 10.2915H773.837V9.27473H772.82V10.2915ZM724.01 10.2915V125.818H726.043V10.2915H724.01ZM725.702 125.058L584.079 -0.731209L582.729 0.789146L724.351 126.578L725.702 125.058ZM582.387 0.0289688V215.542H584.421V0.0289688H582.387ZM583.404 216.558H630.905V214.525H583.404V216.558ZM631.922 215.542V100.015H629.888V215.542H631.922ZM630.23 100.776L772.146 226.565L773.495 225.043L631.579 99.2542L630.23 100.776ZM773.837 225.804V10.2915H771.804V225.804H773.837ZM772.82 9.27473H725.027V11.3082H772.82V9.27473Z" fill="white" mask="url(#path-1-outside-1_182_80)"/>
</g>
</svg>
